<svg xmlns="http://www.w3.org/2000/svg" viewBox="0 0 471 143"><defs><style>.a{fill:#4a4f54;}.b{fill:#4d2d52;}.c{fill:#8d944d;}.d{fill:none;}.e{fill:#14596c;}.f{fill:#fff;}</style></defs><title>RCC_Logo</title><polygon class="b" points="0 0 0 120.23 16.88 120.23 16.65 0 0 0"/><path class="c" d="M494.54,174.84H469.67A59.39,59.39,0,0,1,487,186.37l-8.06,11.24a7.33,7.33,0,0,1-1.84,1.89,5.21,5.21,0,0,1-3.1.82,5.92,5.92,0,0,1-2.78-.76c-1-.51-2-1.13-3.15-1.88s-2.46-1.57-4-2.46a31.64,31.64,0,0,0-5.21-2.46,42.58,42.58,0,0,0-6.88-1.88,47.48,47.48,0,0,0-9-.74A40,40,0,0,0,427,193.27a34.58,34.58,0,0,0-12.42,9,41.42,41.42,0,0,0-8.06,14.38A60.27,60.27,0,0,0,403.7,236a57,57,0,0,0,3.14,19.49,42.89,42.89,0,0,0,8.43,14.35,35.89,35.89,0,0,0,12.5,8.92,38.59,38.59,0,0,0,15.46,3.07,67.1,67.1,0,0,0,8.94-.56,37.8,37.8,0,0,0,7.36-1.72,32.61,32.61,0,0,0,6.37-3,39.88,39.88,0,0,0,6-4.55,8.61,8.61,0,0,1,1.88-1.31,4.57,4.57,0,0,1,2.07-.49,4.77,4.77,0,0,1,3.5,1.52L488.87,282a52.12,52.12,0,0,1-15.47,13h21.14Z" transform="translate(-95.47 -174.83)"/><path class="d" d="M135.61,295.06v.11h46.23a1.09,1.09,0,0,0-.1-.11Z" transform="translate(-95.47 -174.83)"/><path class="b" d="M153.94,253.17a9.22,9.22,0,0,0-3.25-3.2,11.41,11.41,0,0,0-5.23-.94l-9.94,0,.09,46h46.13a9.73,9.73,0,0,1-1.44-1.92Z" transform="translate(-95.47 -174.83)"/><path class="d" d="M234.89,295.06V174.84H215.7V295.06h-7.57l.07.11H271l-.19-.11Z" transform="translate(-95.47 -174.83)"/><path class="b" d="M187,182.82a28.89,28.89,0,0,1,8.62,11.36,37.2,37.2,0,0,1,2.8,14.56,37.77,37.77,0,0,1-1.84,11.93,34.43,34.43,0,0,1-5.34,10.21,35.93,35.93,0,0,1-8.62,8.05A43.08,43.08,0,0,1,171,244.4a23.1,23.1,0,0,1,4.16,3.06,21.89,21.89,0,0,1,3.46,4.19l29.56,43.41h7.57V174.84h-46c.81.19,1.61.4,2.39.62A41.75,41.75,0,0,1,187,182.82Z" transform="translate(-95.47 -174.83)"/><path class="e" d="M256,283.75a60.2,60.2,0,0,1-12.57-21A79,79,0,0,1,239,236.08a74.29,74.29,0,0,1,4.62-26.83,61.63,61.63,0,0,1,13.12-21,59.44,59.44,0,0,1,19.5-13.41H234.89V295.06h35.88A56.28,56.28,0,0,1,256,283.75Z" transform="translate(-95.47 -174.83)"/><path class="d" d="M374.31,295.06V174.84H355.12V295.06H333.4l-.18.11H411l-.19-.11Z" transform="translate(-95.47 -174.83)"/><path class="e" d="M338.91,197.61a7.33,7.33,0,0,1-1.84,1.89,5.21,5.21,0,0,1-3.1.82,5.92,5.92,0,0,1-2.78-.76c-1-.51-2-1.13-3.15-1.88s-2.46-1.57-4-2.46a31.64,31.64,0,0,0-5.21-2.46,42.58,42.58,0,0,0-6.88-1.88,47.48,47.48,0,0,0-9-.74A40,40,0,0,0,287,193.27a34.49,34.49,0,0,0-12.42,9,41.42,41.42,0,0,0-8.06,14.38A60.27,60.27,0,0,0,263.7,236a57,57,0,0,0,3.14,19.49,42.89,42.89,0,0,0,8.43,14.35,35.89,35.89,0,0,0,12.5,8.92,38.59,38.59,0,0,0,15.46,3.07,67.1,67.1,0,0,0,8.94-.56,37.8,37.8,0,0,0,7.36-1.72,32.61,32.61,0,0,0,6.37-3,39.88,39.88,0,0,0,6-4.55,8.61,8.61,0,0,1,1.88-1.31,4.57,4.57,0,0,1,2.07-.49,4.77,4.77,0,0,1,3.5,1.52L348.87,282a52.12,52.12,0,0,1-15.47,13h21.72V174.84H329.67A59.39,59.39,0,0,1,347,186.37Z" transform="translate(-95.47 -174.83)"/><path class="c" d="M374.31,295.06h36.46A56.28,56.28,0,0,1,396,283.75a60.2,60.2,0,0,1-12.57-21A79,79,0,0,1,379,236.08a74.29,74.29,0,0,1,4.62-26.83,61.63,61.63,0,0,1,13.12-21,59.44,59.44,0,0,1,19.5-13.41H374.31Z" transform="translate(-95.47 -174.83)"/><path class="b" d="M161.46,230.68a22.09,22.09,0,0,0,8-4.56,18.11,18.11,0,0,0,4.7-6.88,23.9,23.9,0,0,0,1.54-8.73q0-9.51-6.3-14.6t-19.15-5.06l-14.87,0,.08,41.49,14.52,0A36.05,36.05,0,0,0,161.46,230.68Z" transform="translate(-95.47 -174.83)"/><path class="f" d="M181.74,295.06a1.09,1.09,0,0,1,.1.11H208.2l-.07-.11Z" transform="translate(-95.47 -174.83)"/><polygon class="f" points="16.88 120.23 16.88 120.33 40.14 120.33 40.14 120.23 16.88 120.23"/><path class="f" d="M169.66,174.83h0Z" transform="translate(-95.47 -174.83)"/><path class="f" d="M135.52,249.05l9.94,0a11.41,11.41,0,0,1,5.23.94,9.22,9.22,0,0,1,3.25,3.2l26.36,40a9.73,9.73,0,0,0,1.44,1.92h26.39l-29.56-43.41a21.89,21.89,0,0,0-3.46-4.19A23.1,23.1,0,0,0,171,244.4a43.08,43.08,0,0,0,11.71-5.47,35.93,35.93,0,0,0,8.62-8.05,34.43,34.43,0,0,0,5.34-10.21,37.77,37.77,0,0,0,1.84-11.93,37.2,37.2,0,0,0-2.8-14.56A28.89,28.89,0,0,0,187,182.82a41.75,41.75,0,0,0-15-7.36c-.78-.22-1.58-.43-2.39-.62H112.12l.24,120.22h23.25Zm-.11-58.17,14.87,0q12.87,0,19.15,5.06t6.3,14.6a23.9,23.9,0,0,1-1.54,8.73,18.11,18.11,0,0,1-4.7,6.88,22.09,22.09,0,0,1-8,4.56A36.05,36.05,0,0,1,150,232.34l-14.52,0Z" transform="translate(-95.47 -174.83)"/><path class="f" d="M270.77,295.06l.19.11h62.26l.18-.11Z" transform="translate(-95.47 -174.83)"/><polygon class="f" points="234.2 0 234.19 0 180.78 0 180.77 0 234.2 0"/><path class="f" d="M256.74,188.25a61.63,61.63,0,0,0-13.12,21A74.29,74.29,0,0,0,239,236.08a79,79,0,0,0,4.41,26.67,60.2,60.2,0,0,0,12.57,21,56.28,56.28,0,0,0,14.79,11.31H333.4a52.12,52.12,0,0,0,15.47-13l-9.55-10.31a4.77,4.77,0,0,0-3.5-1.52,4.57,4.57,0,0,0-2.07.49,8.61,8.61,0,0,0-1.88,1.31,39.88,39.88,0,0,1-6,4.55,32.61,32.61,0,0,1-6.37,3,37.8,37.8,0,0,1-7.36,1.72,67.1,67.1,0,0,1-8.94.56,38.59,38.59,0,0,1-15.46-3.07,35.89,35.89,0,0,1-12.5-8.92,42.89,42.89,0,0,1-8.43-14.35A57,57,0,0,1,263.7,236a60.27,60.27,0,0,1,2.84-19.37,41.42,41.42,0,0,1,8.06-14.38,34.49,34.49,0,0,1,12.42-9A40,40,0,0,1,303,190.14a47.48,47.48,0,0,1,9,.74,42.58,42.58,0,0,1,6.88,1.88,31.64,31.64,0,0,1,5.21,2.46q2.25,1.34,4,2.46c1.14.75,2.19,1.37,3.15,1.88a5.92,5.92,0,0,0,2.78.76,5.21,5.21,0,0,0,3.1-.82,7.33,7.33,0,0,0,1.84-1.89L347,186.37a59.39,59.39,0,0,0-17.3-11.53H276.24A59.44,59.44,0,0,0,256.74,188.25Z" transform="translate(-95.47 -174.83)"/><polygon class="f" points="374.2 0 374.19 0 320.78 0 320.77 0 374.2 0"/><path class="f" d="M411,295.17h62.26l.18-.11H410.77Z" transform="translate(-95.47 -174.83)"/><path class="f" d="M488.87,282l-9.55-10.31a4.77,4.77,0,0,0-3.5-1.52,4.57,4.57,0,0,0-2.07.49,8.61,8.61,0,0,0-1.88,1.31,39.88,39.88,0,0,1-6,4.55,32.61,32.61,0,0,1-6.37,3,37.8,37.8,0,0,1-7.36,1.72,67.1,67.1,0,0,1-8.94.56,38.59,38.59,0,0,1-15.46-3.07,35.89,35.89,0,0,1-12.5-8.92,42.89,42.89,0,0,1-8.43-14.35A57,57,0,0,1,403.7,236a60.27,60.27,0,0,1,2.84-19.37,41.42,41.42,0,0,1,8.06-14.38,34.58,34.58,0,0,1,12.42-9A40,40,0,0,1,443,190.14a47.48,47.48,0,0,1,9,.74,42.58,42.58,0,0,1,6.88,1.88,31.64,31.64,0,0,1,5.21,2.46q2.25,1.34,4,2.46c1.14.75,2.19,1.37,3.15,1.88a5.92,5.92,0,0,0,2.78.76,5.21,5.21,0,0,0,3.1-.82,7.33,7.33,0,0,0,1.84-1.89L487,186.37a59.39,59.39,0,0,0-17.3-11.53H416.24a59.44,59.44,0,0,0-19.5,13.41,61.63,61.63,0,0,0-13.12,21A74.29,74.29,0,0,0,379,236.08a79,79,0,0,0,4.41,26.67,60.2,60.2,0,0,0,12.57,21,56.28,56.28,0,0,0,14.79,11.31H473.4A52.12,52.12,0,0,0,488.87,282Z" transform="translate(-95.47 -174.83)"/></svg>