<svg xmlns="http://www.w3.org/2000/svg" viewBox="0 0 399.06 200.39"><defs><style>.a{fill:#4a4f54;}.b{fill:#4d2d52;}.c{fill:#8d944d;}.d{fill:none;}.e{fill:#14596c;}.f{fill:#fff;}</style></defs><title>RCC_Logo</title><path class="a" d="M115.51,316.46a6,6,0,0,1-1.22,3.61,7.27,7.27,0,0,1-3.19,2.46l5.33,8.66-4.28,0-4.83-8.1H102.1v8.1H98.57V309.59h9.73a7.61,7.61,0,0,1,3.44.83,7.28,7.28,0,0,1,2.71,2.37A6.3,6.3,0,0,1,115.51,316.46Zm-7.8-3.67H102.1v7.06h6.52a3,3,0,0,0,2.44-1.05,3.64,3.64,0,0,0,.86-2.37,3.17,3.17,0,0,0-1.24-2.66A4.68,4.68,0,0,0,107.71,312.79Z" transform="translate(-95.47 -174.83)"/><path class="a" d="M134.48,329h0a9.68,9.68,0,0,1-2.88,1.69,10.15,10.15,0,0,1-3.82.74,10,10,0,0,1-4.71-1.06,8.07,8.07,0,0,1-3.19-2.93,8,8,0,0,1-1.14-4.24,8.53,8.53,0,0,1,1.21-4.64,8,8,0,0,1,3.2-3,9.27,9.27,0,0,1,4.34-1,7.88,7.88,0,0,1,3.92,1,7.67,7.67,0,0,1,2.81,2.76,7.93,7.93,0,0,1,1,4.1l0,1.36H122.07a5.12,5.12,0,0,0,1.91,3.46,6.38,6.38,0,0,0,4.1,1.28,5.87,5.87,0,0,0,2.91-.63,12.7,12.7,0,0,0,1.82-1.22Zm-7-11.5a6.45,6.45,0,0,0-3.36.85,4.22,4.22,0,0,0-1.9,2.91h9.6v-.22a3.39,3.39,0,0,0-.73-1.84,4.34,4.34,0,0,0-1.59-1.25A4.63,4.63,0,0,0,127.46,317.54Z" transform="translate(-95.47 -174.83)"/><path class="a" d="M147.6,314.71a5.78,5.78,0,0,1,3.4.9,5,5,0,0,1,1.83,2.49,6.59,6.59,0,0,1,1.33-1.56,8.14,8.14,0,0,1,2.06-1.31,6.07,6.07,0,0,1,2.51-.52,5.79,5.79,0,0,1,3.46.9,4.84,4.84,0,0,1,1.75,2.44,10.69,10.69,0,0,1,.51,3.4v9.71h-3.4v-9.52a5.26,5.26,0,0,0-.72-2.9,3,3,0,0,0-2.71-1.11,4.41,4.41,0,0,0-3.11,1.13,3.56,3.56,0,0,0-1.23,2.73v9.67h-3.39v-9.58a4.77,4.77,0,0,0-.79-2.84,2.93,2.93,0,0,0-2.58-1.11,4.6,4.6,0,0,0-2.21.53,4,4,0,0,0-1.54,1.37,3.37,3.37,0,0,0-.55,1.89v9.74h-3.4V315h3.4v2.59a7.39,7.39,0,0,1,2.2-2A6,6,0,0,1,147.6,314.71Z" transform="translate(-95.47 -174.83)"/><path class="a" d="M184.92,315v16.18h-3.4v-2.49a8.11,8.11,0,0,1-2.32,1.91,7,7,0,0,1-3.56.89,7.45,7.45,0,0,1-3.93-1.08,7.67,7.67,0,0,1-2.82-3,8.91,8.91,0,0,1-1-4.37,8.62,8.62,0,0,1,1.08-4.36,7.68,7.68,0,0,1,3-3,8.64,8.64,0,0,1,4.31-1.07,6.49,6.49,0,0,1,3.15.74,7.39,7.39,0,0,1,2.17,1.73V315Zm-8.49,13.56a5,5,0,0,0,4.57-2.69,6.1,6.1,0,0,0,.65-2.82,5.91,5.91,0,0,0-.65-2.78,5,5,0,0,0-4.57-2.68,5.11,5.11,0,0,0-2.68.71,5,5,0,0,0-1.83,1.94,6,6,0,0,0-.65,2.81,6.1,6.1,0,0,0,.65,2.82,5.11,5.11,0,0,0,1.83,2A5,5,0,0,0,176.43,328.54Z" transform="translate(-95.47 -174.83)"/><path class="a" d="M199.51,319.24a7.9,7.9,0,0,0-2.08-1.42,5,5,0,0,0-2.13-.56,5.68,5.68,0,0,0-1.36.16,2.39,2.39,0,0,0-1.12.57,1.53,1.53,0,0,0-.46,1.22,1.66,1.66,0,0,0,1.06,1.57,15.75,15.75,0,0,0,2.56.83,19.88,19.88,0,0,1,2.61.85,5.32,5.32,0,0,1,2.11,1.47,4.1,4.1,0,0,1,.83,2.73,3.91,3.91,0,0,1-.9,2.59,5.68,5.68,0,0,1-2.31,1.65,8,8,0,0,1-3,.57,11.06,11.06,0,0,1-3.67-.63,6.94,6.94,0,0,1-3.09-2.17l2.29-1.85a6.58,6.58,0,0,0,2,1.49,6.38,6.38,0,0,0,2.76.54,4.07,4.07,0,0,0,1.24-.2,2.46,2.46,0,0,0,1.06-.65,1.61,1.61,0,0,0,.44-1.21,1.45,1.45,0,0,0-.47-1.16,3.57,3.57,0,0,0-1.26-.68c-.52-.17-1.09-.33-1.73-.48a24.53,24.53,0,0,1-2.75-.9,5.89,5.89,0,0,1-2.26-1.55,3.89,3.89,0,0,1-.89-2.72,3.69,3.69,0,0,1,.86-2.48,5.68,5.68,0,0,1,2.27-1.61,7.93,7.93,0,0,1,3-.57,10.27,10.27,0,0,1,3.33.62,6.73,6.73,0,0,1,3,2Z" transform="translate(-95.47 -174.83)"/><path class="a" d="M210.74,331.16h-3.37v-13.1h-3.55V315h3.55v-4.13h3.37V315h4v3.08h-4Z" transform="translate(-95.47 -174.83)"/><path class="a" d="M232.35,329h0a9.49,9.49,0,0,1-2.87,1.69,10.15,10.15,0,0,1-3.82.74,10,10,0,0,1-4.71-1.06,7.82,7.82,0,0,1-4.33-7.17,8.53,8.53,0,0,1,1.21-4.64,8,8,0,0,1,3.2-3,9.24,9.24,0,0,1,4.34-1,7.88,7.88,0,0,1,3.92,1,7.56,7.56,0,0,1,2.8,2.76,7.84,7.84,0,0,1,1,4.1l0,1.36H219.94a5.09,5.09,0,0,0,1.91,3.46,6.36,6.36,0,0,0,4.1,1.28,5.83,5.83,0,0,0,2.9-.63,13.46,13.46,0,0,0,1.83-1.22Zm-7-11.5a6.4,6.4,0,0,0-3.36.85,4.22,4.22,0,0,0-1.9,2.91h9.6v-.22a3.39,3.39,0,0,0-.73-1.84,4.42,4.42,0,0,0-1.59-1.25A4.63,4.63,0,0,0,225.33,317.54Z" transform="translate(-95.47 -174.83)"/><path class="a" d="M246.35,318.4a4,4,0,0,0-.8-.26,4.62,4.62,0,0,0-4.73,1.85,3.73,3.73,0,0,0-.67,2.23v8.94h-3.4V315h3.4v3a6.09,6.09,0,0,1,2.17-2.43,5.46,5.46,0,0,1,3.05-1,4.53,4.53,0,0,1,1.86.31Z" transform="translate(-95.47 -174.83)"/><path class="a" d="M263.92,329h0a9.49,9.49,0,0,1-2.87,1.69,10.66,10.66,0,0,1-8.54-.32,7.83,7.83,0,0,1-4.32-7.17,8.53,8.53,0,0,1,1.21-4.64,8,8,0,0,1,3.2-3,9.24,9.24,0,0,1,4.34-1,7.84,7.84,0,0,1,3.91,1,7.52,7.52,0,0,1,2.81,2.76,7.84,7.84,0,0,1,1.05,4.1l0,1.36H251.51a5.09,5.09,0,0,0,1.91,3.46,6.36,6.36,0,0,0,4.1,1.28,5.85,5.85,0,0,0,2.9-.63,13.46,13.46,0,0,0,1.83-1.22Zm-7-11.5a6.4,6.4,0,0,0-3.36.85,4.22,4.22,0,0,0-1.9,2.91h9.6v-.22a3.4,3.4,0,0,0-.74-1.84,4.31,4.31,0,0,0-1.58-1.25A4.63,4.63,0,0,0,256.9,317.54Z" transform="translate(-95.47 -174.83)"/><path class="a" d="M284.38,308.36v22.8H281v-2.28a7.14,7.14,0,0,1-2.22,1.77,6.68,6.68,0,0,1-3.33.82,8.19,8.19,0,0,1-4.18-1.08,7.73,7.73,0,0,1-2.93-3,9.3,9.3,0,0,1,0-8.7,7.83,7.83,0,0,1,2.9-3,7.93,7.93,0,0,1,4.11-1.08,7.66,7.66,0,0,1,3.32.71A7.24,7.24,0,0,1,281,317v-8.66Zm-8.45,20.37A4.91,4.91,0,0,0,280.5,326a6.82,6.82,0,0,0,0-5.81,5,5,0,0,0-4.57-2.75,4.92,4.92,0,0,0-2.71.74,5.1,5.1,0,0,0-1.84,2,6.63,6.63,0,0,0,0,5.81,5.12,5.12,0,0,0,1.84,2A5,5,0,0,0,275.93,328.73Z" transform="translate(-95.47 -174.83)"/><path class="a" d="M316.38,328.51a7.83,7.83,0,0,1-1.91,1.42,13.07,13.07,0,0,1-2.81,1.11,12.72,12.72,0,0,1-3.38.43,11.2,11.2,0,0,1-5.53-1.37,10.26,10.26,0,0,1-3.92-3.87,11.39,11.39,0,0,1-1.45-5.85,10.68,10.68,0,0,1,.88-4.38,10.56,10.56,0,0,1,2.45-3.48,11.33,11.33,0,0,1,7.86-3.11,10.94,10.94,0,0,1,3.48.53,11.21,11.21,0,0,1,2.84,1.39,7.93,7.93,0,0,1,1.91,1.8l-2.35,2.32a11.86,11.86,0,0,0-2.68-1.95,6.81,6.81,0,0,0-3.2-.77,7.75,7.75,0,0,0-3.7.93,7.29,7.29,0,0,0-2.83,2.63,7.58,7.58,0,0,0-1.07,4.09,7.9,7.9,0,0,0,1.09,4.31,6.75,6.75,0,0,0,2.91,2.57,9,9,0,0,0,3.9.85,7.61,7.61,0,0,0,3.39-.72,9,9,0,0,0,2.35-1.59Z" transform="translate(-95.47 -174.83)"/><path class="a" d="M336.75,323.06a8.09,8.09,0,0,1-4.3,7.33,9,9,0,0,1-4.42,1.08,9.17,9.17,0,0,1-4.44-1.08,8.33,8.33,0,0,1,0-14.67,9.17,9.17,0,0,1,4.44-1.08,9,9,0,0,1,4.42,1.08,8.12,8.12,0,0,1,4.3,7.34Zm-3.43,0a5.53,5.53,0,0,0-.67-2.88,5.11,5.11,0,0,0-1.91-1.95,5.38,5.38,0,0,0-2.71-.69,5.48,5.48,0,0,0-2.73.69,5.07,5.07,0,0,0-1.92,1.95,6.46,6.46,0,0,0,0,5.73,5.14,5.14,0,0,0,1.92,1.95,5.3,5.3,0,0,0,2.73.71,5.19,5.19,0,0,0,4.62-2.66A5.49,5.49,0,0,0,333.32,323.06Z" transform="translate(-95.47 -174.83)"/><path class="a" d="M349.38,314.64a6.17,6.17,0,0,1,3.59.9,4.63,4.63,0,0,1,1.78,2.4,10.48,10.48,0,0,1,.51,3.36v9.86h-3.37v-9.64a6.52,6.52,0,0,0-.32-2.1,2.84,2.84,0,0,0-1.11-1.45,3.5,3.5,0,0,0-2.19-.43,5,5,0,0,0-2.32.52,4.34,4.34,0,0,0-1.6,1.39,3.34,3.34,0,0,0-.59,1.91v9.8H340.4V315h3.36v2.56a7.15,7.15,0,0,1,2.29-2A6.52,6.52,0,0,1,349.38,314.64Z" transform="translate(-95.47 -174.83)"/><path class="a" d="M369.72,319.24a7.9,7.9,0,0,0-2.08-1.42,5,5,0,0,0-2.13-.56,5.68,5.68,0,0,0-1.36.16A2.39,2.39,0,0,0,363,318a1.53,1.53,0,0,0-.46,1.22,1.66,1.66,0,0,0,1.06,1.57,15.75,15.75,0,0,0,2.56.83,19.41,19.41,0,0,1,2.61.85,5.32,5.32,0,0,1,2.11,1.47,4.1,4.1,0,0,1,.83,2.73,3.91,3.91,0,0,1-.9,2.59,5.68,5.68,0,0,1-2.31,1.65,8,8,0,0,1-3,.57,11.06,11.06,0,0,1-3.67-.63,6.94,6.94,0,0,1-3.09-2.17l2.29-1.85a6.58,6.58,0,0,0,2,1.49,6.38,6.38,0,0,0,2.76.54,4.07,4.07,0,0,0,1.24-.2,2.46,2.46,0,0,0,1.06-.65,1.61,1.61,0,0,0,.45-1.21,1.45,1.45,0,0,0-.48-1.16,3.57,3.57,0,0,0-1.26-.68c-.52-.17-1.09-.33-1.73-.48a24.53,24.53,0,0,1-2.75-.9A5.89,5.89,0,0,1,360.1,322a3.89,3.89,0,0,1-.89-2.72,3.69,3.69,0,0,1,.86-2.48,5.68,5.68,0,0,1,2.27-1.61,7.93,7.93,0,0,1,3-.57,10.27,10.27,0,0,1,3.33.62,6.73,6.73,0,0,1,3,2Z" transform="translate(-95.47 -174.83)"/><path class="a" d="M387.15,324.72V315h3.36v16.18h-3.36v-2.59a6.77,6.77,0,0,1-2.2,2,6.57,6.57,0,0,1-3.48.88,5.75,5.75,0,0,1-4.34-1.73,6.58,6.58,0,0,1-1.67-4.77V315h3.36v9.12a6.21,6.21,0,0,0,.41,2.28,3.58,3.58,0,0,0,1.31,1.68,3.84,3.84,0,0,0,2.3.64,4.64,4.64,0,0,0,3-1.05A3.62,3.62,0,0,0,387.15,324.72Z" transform="translate(-95.47 -174.83)"/><path class="a" d="M395.21,331.16v-22.8h3.37v22.8Z" transform="translate(-95.47 -174.83)"/><path class="a" d="M408.76,331.16H405.4v-13.1h-3.56V315h3.56v-4.13h3.36V315h4v3.08h-4Z" transform="translate(-95.47 -174.83)"/><path class="a" d="M418.06,311.47a2.29,2.29,0,0,1-1.69-.55,2,2,0,0,1-.56-1.45,2,2,0,0,1,.56-1.39,2.16,2.16,0,0,1,1.69-.62,2.3,2.3,0,0,1,1.7.56,2,2,0,0,1,.56,1.45,2,2,0,0,1-.56,1.38A2.17,2.17,0,0,1,418.06,311.47Zm1.73,19.69h-3.36V315h3.36Z" transform="translate(-95.47 -174.83)"/><path class="a" d="M433.86,314.64a6.18,6.18,0,0,1,3.6.9,4.62,4.62,0,0,1,1.77,2.4,10.48,10.48,0,0,1,.51,3.36v9.86h-3.36v-9.64a6.25,6.25,0,0,0-.33-2.1,2.84,2.84,0,0,0-1.11-1.45,3.49,3.49,0,0,0-2.19-.43,4.92,4.92,0,0,0-2.31.52,4.27,4.27,0,0,0-1.6,1.39,3.34,3.34,0,0,0-.59,1.91v9.8h-3.36V315h3.36v2.56a7,7,0,0,1,2.28-2A6.55,6.55,0,0,1,433.86,314.64Z" transform="translate(-95.47 -174.83)"/><path class="a" d="M446.66,333.84a8.07,8.07,0,0,0,2.45,1.14,10.09,10.09,0,0,0,2.87.43,6,6,0,0,0,4-1.21,4.58,4.58,0,0,0,1.4-3.66v-2a5.29,5.29,0,0,1-1.3,1.4,7.29,7.29,0,0,1-4.38,1.5,8.7,8.7,0,0,1-4.31-1.08,8,8,0,0,1-3.05-3,9,9,0,0,1,0-8.7,7.93,7.93,0,0,1,3-3,8.48,8.48,0,0,1,4.26-1.08,7.26,7.26,0,0,1,3.47.82,7.6,7.6,0,0,1,2.3,1.77V315h3.37v15.19a8,8,0,0,1-1.23,4.67,7,7,0,0,1-3.23,2.59,11.36,11.36,0,0,1-4.36.82,12.69,12.69,0,0,1-3.64-.54,8.93,8.93,0,0,1-2.92-1.4Zm5.45-16.3a5.42,5.42,0,0,0-2.79.72,5.21,5.21,0,0,0-1.92,2,5.62,5.62,0,0,0-.71,2.82,5.55,5.55,0,0,0,.71,2.8,5.23,5.23,0,0,0,1.92,2,5.42,5.42,0,0,0,2.79.72,5.54,5.54,0,0,0,2.86-.71,5,5,0,0,0,1.91-1.95,6.23,6.23,0,0,0,0-5.66,5.21,5.21,0,0,0-1.91-2A5.55,5.55,0,0,0,452.11,317.54Z" transform="translate(-95.47 -174.83)"/><path class="a" d="M105.36,368.45a9.18,9.18,0,0,1-4.33-1,8.08,8.08,0,0,1-3-2.54A5.71,5.71,0,0,1,97,361.61a6.78,6.78,0,0,1,1.19-3.9,8.31,8.31,0,0,1,3.74-2.82,6.79,6.79,0,0,1-.8-1.56,4.83,4.83,0,0,1-.28-1.58,4.91,4.91,0,0,1,.82-2.73,5.75,5.75,0,0,1,2.33-2,8,8,0,0,1,3.61-.76,6.88,6.88,0,0,1,4,1.16,5.8,5.8,0,0,1,2.32,2.88l-2.54,1.54a4.7,4.7,0,0,0-1.54-2.08,3.82,3.82,0,0,0-2.22-.63,3.28,3.28,0,0,0-2.4.72,2.47,2.47,0,0,0-.7,1.8,4,4,0,0,0,.65,2,15.66,15.66,0,0,0,1.55,2.09c.6.68,1.15,1.28,1.65,1.79l3.85,4.07a11.78,11.78,0,0,0,.77-1.79,12.6,12.6,0,0,0,.48-1.85h3a15.66,15.66,0,0,1-.77,3,12.36,12.36,0,0,1-1.42,2.78c.92.93,1.75,1.79,2.5,2.58s1.33,1.38,1.75,1.77h-4.38l-1-1c-.34-.33-.66-.64-1-.95a10.47,10.47,0,0,1-3,1.66A11,11,0,0,1,105.36,368.45Zm-4.8-7.31a4.35,4.35,0,0,0,.56,2.1,4,4,0,0,0,1.76,1.65,6.75,6.75,0,0,0,3.13.63,6.41,6.41,0,0,0,2.3-.39,7.15,7.15,0,0,0,1.88-1L105,358.65l-.65-.71c-.22-.23-.43-.45-.62-.68a4.36,4.36,0,0,0-2.48,1.59A4,4,0,0,0,100.56,361.14Z" transform="translate(-95.47 -174.83)"/><path class="a" d="M149.2,365.49a7.64,7.64,0,0,1-1.91,1.42,12.67,12.67,0,0,1-2.81,1.11,13.07,13.07,0,0,1-3.37.43,11.26,11.26,0,0,1-5.54-1.37,10.33,10.33,0,0,1-3.92-3.87,11.55,11.55,0,0,1-1.45-5.86,10.83,10.83,0,0,1,.88-4.37,10.6,10.6,0,0,1,2.45-3.48,11.4,11.4,0,0,1,7.87-3.12,10.94,10.94,0,0,1,3.48.54,11.55,11.55,0,0,1,2.84,1.39,8.12,8.12,0,0,1,1.91,1.8l-2.35,2.31a11.82,11.82,0,0,0-2.68-1.94,6.84,6.84,0,0,0-3.2-.77,7.79,7.79,0,0,0-3.71.93,7.34,7.34,0,0,0-2.82,2.63,7.48,7.48,0,0,0-1.08,4.08,7.92,7.92,0,0,0,1.1,4.32,6.73,6.73,0,0,0,2.9,2.57,9,9,0,0,0,3.9.85,7.5,7.5,0,0,0,3.4-.73,9.15,9.15,0,0,0,2.35-1.58Z" transform="translate(-95.47 -174.83)"/><path class="a" d="M169.57,360a8.1,8.1,0,0,1-4.29,7.33,9.63,9.63,0,0,1-8.86,0,8.33,8.33,0,0,1,0-14.67,9.63,9.63,0,0,1,8.86,0,8.1,8.1,0,0,1,4.29,7.34Zm-3.43,0a5.49,5.49,0,0,0-.67-2.89,5,5,0,0,0-1.91-1.94,5.32,5.32,0,0,0-2.7-.69,5.46,5.46,0,0,0-2.73.69,5,5,0,0,0-1.93,1.94,5.69,5.69,0,0,0-.67,2.89,5.61,5.61,0,0,0,.67,2.85,5.09,5.09,0,0,0,1.93,1.95,5.27,5.27,0,0,0,2.73.71,5.14,5.14,0,0,0,2.7-.71,5,5,0,0,0,1.91-1.95A5.42,5.42,0,0,0,166.14,360Z" transform="translate(-95.47 -174.83)"/><path class="a" d="M184.91,361.7V352h3.37v16.18h-3.37v-2.59a6.77,6.77,0,0,1-2.2,2,6.57,6.57,0,0,1-3.48.88,5.77,5.77,0,0,1-4.34-1.73,6.58,6.58,0,0,1-1.66-4.77V352h3.36v9.12a6.25,6.25,0,0,0,.41,2.28,3.62,3.62,0,0,0,1.3,1.68,3.93,3.93,0,0,0,2.3.63,4.62,4.62,0,0,0,3-1A3.59,3.59,0,0,0,184.91,361.7Z" transform="translate(-95.47 -174.83)"/><path class="a" d="M202,351.62a6.17,6.17,0,0,1,3.59.9,4.63,4.63,0,0,1,1.78,2.4,10.77,10.77,0,0,1,.5,3.36v9.86h-3.36v-9.65a6.19,6.19,0,0,0-.33-2.09A2.84,2.84,0,0,0,203,355a3.47,3.47,0,0,0-2.18-.43,4.93,4.93,0,0,0-2.32.52,4.18,4.18,0,0,0-1.6,1.39,3.32,3.32,0,0,0-.59,1.91v9.8H193V352h3.36v2.56a6.94,6.94,0,0,1,2.29-2A6.52,6.52,0,0,1,202,351.62Z" transform="translate(-95.47 -174.83)"/><path class="a" d="M222.29,356.21a8.24,8.24,0,0,0-2.07-1.41,5,5,0,0,0-2.14-.56,5.54,5.54,0,0,0-1.35.16,2.38,2.38,0,0,0-1.13.57,1.56,1.56,0,0,0-.46,1.21,1.67,1.67,0,0,0,1.06,1.57,14.91,14.91,0,0,0,2.57.84,19.84,19.84,0,0,1,2.61.84,5.34,5.34,0,0,1,2.1,1.48,4.05,4.05,0,0,1,.84,2.73,3.91,3.91,0,0,1-.9,2.59,5.72,5.72,0,0,1-2.32,1.65,8,8,0,0,1-3,.57,11.11,11.11,0,0,1-3.67-.63,6.86,6.86,0,0,1-3.08-2.18l2.28-1.85a6.61,6.61,0,0,0,2,1.5,6.35,6.35,0,0,0,2.76.54,4.17,4.17,0,0,0,1.24-.2,2.52,2.52,0,0,0,1.06-.65,1.67,1.67,0,0,0,.44-1.22,1.47,1.47,0,0,0-.47-1.15,3.75,3.75,0,0,0-1.26-.68c-.52-.17-1.1-.33-1.73-.48a22.28,22.28,0,0,1-2.76-.91,5.9,5.9,0,0,1-2.25-1.54,3.92,3.92,0,0,1-.9-2.72,3.74,3.74,0,0,1,.87-2.49,5.69,5.69,0,0,1,2.27-1.6,7.85,7.85,0,0,1,3-.57,10.37,10.37,0,0,1,3.33.62,6.79,6.79,0,0,1,3,2Z" transform="translate(-95.47 -174.83)"/><path class="a" d="M242.76,366h0a9.69,9.69,0,0,1-2.88,1.7,10.59,10.59,0,0,1-8.53-.33,7.84,7.84,0,0,1-4.33-7.16,8.62,8.62,0,0,1,1.21-4.64,8.2,8.2,0,0,1,3.2-3,9.38,9.38,0,0,1,4.34-1,7.88,7.88,0,0,1,3.92,1,7.67,7.67,0,0,1,2.81,2.76,7.93,7.93,0,0,1,1,4.1l0,1.36H230.36a5.07,5.07,0,0,0,1.91,3.46,6.39,6.39,0,0,0,4.09,1.28,5.87,5.87,0,0,0,2.91-.63,13.46,13.46,0,0,0,1.83-1.22Zm-7-11.49a6.45,6.45,0,0,0-3.36.85,4.18,4.18,0,0,0-1.89,2.91h9.59v-.22a3.42,3.42,0,0,0-.73-1.85,4.36,4.36,0,0,0-1.58-1.24A4.7,4.7,0,0,0,235.74,354.52Z" transform="translate(-95.47 -174.83)"/><path class="a" d="M247.17,368.14v-22.8h3.36v22.8Z" transform="translate(-95.47 -174.83)"/><path class="a" d="M257.58,348.45a2.32,2.32,0,0,1-1.7-.56,1.94,1.94,0,0,1-.55-1.44,2,2,0,0,1,.55-1.39,2.18,2.18,0,0,1,1.7-.62,2.32,2.32,0,0,1,1.7.56,2,2,0,0,1,.55,1.45,2,2,0,0,1-.55,1.38A2.18,2.18,0,0,1,257.58,348.45Zm1.73,19.69H256V352h3.36Z" transform="translate(-95.47 -174.83)"/><path class="a" d="M273.38,351.62a6.14,6.14,0,0,1,3.59.9,4.63,4.63,0,0,1,1.78,2.4,10.48,10.48,0,0,1,.51,3.36v9.86H275.9v-9.65a6.19,6.19,0,0,0-.33-2.09,2.84,2.84,0,0,0-1.11-1.45,3.49,3.49,0,0,0-2.19-.43A5,5,0,0,0,270,355a4.33,4.33,0,0,0-1.6,1.39,3.31,3.31,0,0,0-.58,1.91v9.8H264.4V352h3.37v2.56a7,7,0,0,1,2.28-2A6.52,6.52,0,0,1,273.38,351.62Z" transform="translate(-95.47 -174.83)"/><path class="a" d="M286.18,370.82a8.07,8.07,0,0,0,2.45,1.14,10,10,0,0,0,2.87.43,6,6,0,0,0,4.05-1.22,4.57,4.57,0,0,0,1.4-3.65v-2a5.44,5.44,0,0,1-1.3,1.4,7.08,7.08,0,0,1-2,1.08,6.82,6.82,0,0,1-2.38.42,8.67,8.67,0,0,1-4.31-1.08,8.1,8.1,0,0,1-3-3,8.38,8.38,0,0,1-1.13-4.34,8.5,8.5,0,0,1,1.11-4.37,8,8,0,0,1,3-3,8.54,8.54,0,0,1,4.26-1.08,7.16,7.16,0,0,1,3.48.82,7.44,7.44,0,0,1,2.3,1.77V352h3.36v15.19a8,8,0,0,1-1.22,4.67,7.08,7.08,0,0,1-3.23,2.59,11.36,11.36,0,0,1-4.36.82,12.69,12.69,0,0,1-3.64-.54,8.93,8.93,0,0,1-2.92-1.4Zm5.45-16.3a5.39,5.39,0,0,0-2.79.72,5.24,5.24,0,0,0-1.93,2,5.62,5.62,0,0,0-.7,2.82,5.54,5.54,0,0,0,.7,2.8,5.33,5.33,0,0,0,1.93,2,5.39,5.39,0,0,0,2.79.72,5.64,5.64,0,0,0,2.86-.71,5,5,0,0,0,1.91-2,6.21,6.21,0,0,0,0-5.65,5.28,5.28,0,0,0-1.91-2A5.55,5.55,0,0,0,291.63,354.52Z" transform="translate(-95.47 -174.83)"/><path class="a" d="M309.78,368a5,5,0,0,1-.62,2.43,6.55,6.55,0,0,1-1.62,2,6.88,6.88,0,0,1-2.1,1.24l-1.24-1.42a6.91,6.91,0,0,0,1.86-1.42,2.27,2.27,0,0,0,.72-1.39,1.21,1.21,0,0,0-.3-.81,5.91,5.91,0,0,0-.65-.68,4.2,4.2,0,0,1-.65-.74,1.72,1.72,0,0,1-.3-1,1.39,1.39,0,0,1,.59-1.2,2.3,2.3,0,0,1,1.41-.44,2.78,2.78,0,0,1,2,.9A3.49,3.49,0,0,1,309.78,368Z" transform="translate(-95.47 -174.83)"/><path class="a" d="M337.86,364.93v3.21H323.62V346.57h3.53v18.36Z" transform="translate(-95.47 -174.83)"/><path class="a" d="M357.41,364.93v3.21H343.18V346.57h3.52v18.36Z" transform="translate(-95.47 -174.83)"/><path class="a" d="M379.45,365.49a7.83,7.83,0,0,1-1.91,1.42,12.91,12.91,0,0,1-6.19,1.54,11.2,11.2,0,0,1-5.53-1.37,10.26,10.26,0,0,1-3.92-3.87,11.45,11.45,0,0,1-1.45-5.86,10.66,10.66,0,0,1,.88-4.37,10.46,10.46,0,0,1,2.45-3.48,11.4,11.4,0,0,1,7.86-3.12,10.94,10.94,0,0,1,3.48.54,11.38,11.38,0,0,1,2.84,1.39,7.93,7.93,0,0,1,1.91,1.8l-2.35,2.31a11.82,11.82,0,0,0-2.68-1.94,6.81,6.81,0,0,0-3.2-.77,7.75,7.75,0,0,0-3.7.93,7.29,7.29,0,0,0-2.83,2.63,7.56,7.56,0,0,0-1.07,4.08,7.92,7.92,0,0,0,1.09,4.32,6.75,6.75,0,0,0,2.91,2.57,9,9,0,0,0,3.9.85,7.48,7.48,0,0,0,3.39-.73,9.15,9.15,0,0,0,2.35-1.58Z" transform="translate(-95.47 -174.83)"/><polygon class="b" points="0 0 0 120.23 16.88 120.23 16.65 0 0 0"/><path class="c" d="M494.54,174.84H469.67A59.39,59.39,0,0,1,487,186.37l-8.06,11.24a7.33,7.33,0,0,1-1.84,1.89,5.21,5.21,0,0,1-3.1.82,5.92,5.92,0,0,1-2.78-.76c-1-.51-2-1.13-3.15-1.88s-2.46-1.57-4-2.46a31.64,31.64,0,0,0-5.21-2.46,42.58,42.58,0,0,0-6.88-1.88,47.48,47.48,0,0,0-9-.74A40,40,0,0,0,427,193.27a34.58,34.58,0,0,0-12.42,9,41.42,41.42,0,0,0-8.06,14.38A60.27,60.27,0,0,0,403.7,236a57,57,0,0,0,3.14,19.49,42.89,42.89,0,0,0,8.43,14.35,35.89,35.89,0,0,0,12.5,8.92,38.59,38.59,0,0,0,15.46,3.07,67.1,67.1,0,0,0,8.94-.56,37.8,37.8,0,0,0,7.36-1.72,32.61,32.61,0,0,0,6.37-3,39.88,39.88,0,0,0,6-4.55,8.61,8.61,0,0,1,1.88-1.31,4.57,4.57,0,0,1,2.07-.49,4.77,4.77,0,0,1,3.5,1.52L488.87,282a52.12,52.12,0,0,1-15.47,13h21.14Z" transform="translate(-95.47 -174.83)"/><path class="d" d="M135.61,295.06v.11h46.23a1.09,1.09,0,0,0-.1-.11Z" transform="translate(-95.47 -174.83)"/><path class="b" d="M153.94,253.17a9.22,9.22,0,0,0-3.25-3.2,11.41,11.41,0,0,0-5.23-.94l-9.94,0,.09,46h46.13a9.73,9.73,0,0,1-1.44-1.92Z" transform="translate(-95.47 -174.83)"/><path class="d" d="M234.89,295.06V174.84H215.7V295.06h-7.57l.07.11H271l-.19-.11Z" transform="translate(-95.47 -174.83)"/><path class="b" d="M187,182.82a28.89,28.89,0,0,1,8.62,11.36,37.2,37.2,0,0,1,2.8,14.56,37.77,37.77,0,0,1-1.84,11.93,34.43,34.43,0,0,1-5.34,10.21,35.93,35.93,0,0,1-8.62,8.05A43.08,43.08,0,0,1,171,244.4a23.1,23.1,0,0,1,4.16,3.06,21.89,21.89,0,0,1,3.46,4.19l29.56,43.41h7.57V174.84h-46c.81.19,1.61.4,2.39.62A41.75,41.75,0,0,1,187,182.82Z" transform="translate(-95.47 -174.83)"/><path class="e" d="M256,283.75a60.2,60.2,0,0,1-12.57-21A79,79,0,0,1,239,236.08a74.29,74.29,0,0,1,4.62-26.83,61.63,61.63,0,0,1,13.12-21,59.44,59.44,0,0,1,19.5-13.41H234.89V295.06h35.88A56.28,56.28,0,0,1,256,283.75Z" transform="translate(-95.47 -174.83)"/><path class="d" d="M374.31,295.06V174.84H355.12V295.06H333.4l-.18.11H411l-.19-.11Z" transform="translate(-95.47 -174.83)"/><path class="e" d="M338.91,197.61a7.33,7.33,0,0,1-1.84,1.89,5.21,5.21,0,0,1-3.1.82,5.92,5.92,0,0,1-2.78-.76c-1-.51-2-1.13-3.15-1.88s-2.46-1.57-4-2.46a31.64,31.64,0,0,0-5.21-2.46,42.58,42.58,0,0,0-6.88-1.88,47.48,47.48,0,0,0-9-.74A40,40,0,0,0,287,193.27a34.49,34.49,0,0,0-12.42,9,41.42,41.42,0,0,0-8.06,14.38A60.27,60.27,0,0,0,263.7,236a57,57,0,0,0,3.14,19.49,42.89,42.89,0,0,0,8.43,14.35,35.89,35.89,0,0,0,12.5,8.92,38.59,38.59,0,0,0,15.46,3.07,67.1,67.1,0,0,0,8.94-.56,37.8,37.8,0,0,0,7.36-1.72,32.61,32.61,0,0,0,6.37-3,39.88,39.88,0,0,0,6-4.55,8.61,8.61,0,0,1,1.88-1.31,4.57,4.57,0,0,1,2.07-.49,4.77,4.77,0,0,1,3.5,1.52L348.87,282a52.12,52.12,0,0,1-15.47,13h21.72V174.84H329.67A59.39,59.39,0,0,1,347,186.37Z" transform="translate(-95.47 -174.83)"/><path class="c" d="M374.31,295.06h36.46A56.28,56.28,0,0,1,396,283.75a60.2,60.2,0,0,1-12.57-21A79,79,0,0,1,379,236.08a74.29,74.29,0,0,1,4.62-26.83,61.63,61.63,0,0,1,13.12-21,59.44,59.44,0,0,1,19.5-13.41H374.31Z" transform="translate(-95.47 -174.83)"/><path class="b" d="M161.46,230.68a22.09,22.09,0,0,0,8-4.56,18.11,18.11,0,0,0,4.7-6.88,23.9,23.9,0,0,0,1.54-8.73q0-9.51-6.3-14.6t-19.15-5.06l-14.87,0,.08,41.49,14.52,0A36.05,36.05,0,0,0,161.46,230.68Z" transform="translate(-95.47 -174.83)"/><path class="f" d="M181.74,295.06a1.09,1.09,0,0,1,.1.11H208.2l-.07-.11Z" transform="translate(-95.47 -174.83)"/><polygon class="f" points="16.88 120.23 16.88 120.33 40.14 120.33 40.14 120.23 16.88 120.23"/><path class="f" d="M169.66,174.83h0Z" transform="translate(-95.47 -174.83)"/><path class="f" d="M135.52,249.05l9.94,0a11.41,11.41,0,0,1,5.23.94,9.22,9.22,0,0,1,3.25,3.2l26.36,40a9.73,9.73,0,0,0,1.44,1.92h26.39l-29.56-43.41a21.89,21.89,0,0,0-3.46-4.19A23.1,23.1,0,0,0,171,244.4a43.08,43.08,0,0,0,11.71-5.47,35.93,35.93,0,0,0,8.62-8.05,34.43,34.43,0,0,0,5.34-10.21,37.77,37.77,0,0,0,1.84-11.93,37.2,37.2,0,0,0-2.8-14.56A28.89,28.89,0,0,0,187,182.82a41.75,41.75,0,0,0-15-7.36c-.78-.22-1.58-.43-2.39-.62H112.12l.24,120.22h23.25Zm-.11-58.17,14.87,0q12.87,0,19.15,5.06t6.3,14.6a23.9,23.9,0,0,1-1.54,8.73,18.11,18.11,0,0,1-4.7,6.88,22.09,22.09,0,0,1-8,4.56A36.05,36.05,0,0,1,150,232.34l-14.52,0Z" transform="translate(-95.47 -174.83)"/><path class="f" d="M270.77,295.06l.19.11h62.26l.18-.11Z" transform="translate(-95.47 -174.83)"/><polygon class="f" points="234.2 0 234.19 0 180.78 0 180.77 0 234.2 0"/><path class="f" d="M256.74,188.25a61.63,61.63,0,0,0-13.12,21A74.29,74.29,0,0,0,239,236.08a79,79,0,0,0,4.41,26.67,60.2,60.2,0,0,0,12.57,21,56.28,56.28,0,0,0,14.79,11.31H333.4a52.12,52.12,0,0,0,15.47-13l-9.55-10.31a4.77,4.77,0,0,0-3.5-1.52,4.57,4.57,0,0,0-2.07.49,8.61,8.61,0,0,0-1.88,1.31,39.88,39.88,0,0,1-6,4.55,32.61,32.61,0,0,1-6.37,3,37.8,37.8,0,0,1-7.36,1.72,67.1,67.1,0,0,1-8.94.56,38.59,38.59,0,0,1-15.46-3.07,35.89,35.89,0,0,1-12.5-8.92,42.89,42.89,0,0,1-8.43-14.35A57,57,0,0,1,263.7,236a60.27,60.27,0,0,1,2.84-19.37,41.42,41.42,0,0,1,8.06-14.38,34.49,34.49,0,0,1,12.42-9A40,40,0,0,1,303,190.14a47.48,47.48,0,0,1,9,.74,42.58,42.58,0,0,1,6.88,1.88,31.64,31.64,0,0,1,5.21,2.46q2.25,1.34,4,2.46c1.14.75,2.19,1.37,3.15,1.88a5.92,5.92,0,0,0,2.78.76,5.21,5.21,0,0,0,3.1-.82,7.33,7.33,0,0,0,1.84-1.89L347,186.37a59.39,59.39,0,0,0-17.3-11.53H276.24A59.44,59.44,0,0,0,256.74,188.25Z" transform="translate(-95.47 -174.83)"/><polygon class="f" points="374.2 0 374.19 0 320.78 0 320.77 0 374.2 0"/><path class="f" d="M411,295.17h62.26l.18-.11H410.77Z" transform="translate(-95.47 -174.83)"/><path class="f" d="M488.87,282l-9.55-10.31a4.77,4.77,0,0,0-3.5-1.52,4.57,4.57,0,0,0-2.07.49,8.61,8.61,0,0,0-1.88,1.31,39.88,39.88,0,0,1-6,4.55,32.61,32.61,0,0,1-6.37,3,37.8,37.8,0,0,1-7.36,1.72,67.1,67.1,0,0,1-8.94.56,38.59,38.59,0,0,1-15.46-3.07,35.89,35.89,0,0,1-12.5-8.92,42.89,42.89,0,0,1-8.43-14.35A57,57,0,0,1,403.7,236a60.27,60.27,0,0,1,2.84-19.37,41.42,41.42,0,0,1,8.06-14.38,34.58,34.58,0,0,1,12.42-9A40,40,0,0,1,443,190.14a47.48,47.48,0,0,1,9,.74,42.58,42.58,0,0,1,6.88,1.88,31.64,31.64,0,0,1,5.21,2.46q2.25,1.34,4,2.46c1.14.75,2.19,1.37,3.15,1.88a5.92,5.92,0,0,0,2.78.76,5.21,5.21,0,0,0,3.1-.82,7.33,7.33,0,0,0,1.84-1.89L487,186.37a59.39,59.39,0,0,0-17.3-11.53H416.24a59.44,59.44,0,0,0-19.5,13.41,61.63,61.63,0,0,0-13.12,21A74.29,74.29,0,0,0,379,236.08a79,79,0,0,0,4.41,26.67,60.2,60.2,0,0,0,12.57,21,56.28,56.28,0,0,0,14.79,11.31H473.4A52.12,52.12,0,0,0,488.87,282Z" transform="translate(-95.47 -174.83)"/></svg>